<svg width="20" height="20" viewBox="0 0 20 20" fill="none" xmlns="http://www.w3.org/2000/svg">
<path d="M8.33333 1.11108C12.9357 1.11108 16.6667 4.13042 16.6667 7.85497C16.6667 11.5795 12.9357 14.5989 8.33333 14.5989C7.89135 14.5989 7.45753 14.5707 7.03413 14.5171C5.2441 16.3 3.17698 16.6197 1.11111 16.6666V16.2303C2.2266 15.6859 3.125 14.6945 3.125 13.5613C3.125 13.4032 3.11264 13.248 3.08976 13.0962C1.20507 11.8598 0 9.97133 0 7.85497C0 4.13042 3.73097 1.11108 8.33333 1.11108ZM17.2917 16.2272C17.2917 17.1984 17.9221 18.0483 18.8889 18.5149V18.8889C17.0985 18.8486 15.4551 18.5746 13.9038 17.0464C13.5368 17.0924 13.1609 17.1166 12.7778 17.1166C11.1203 17.1166 9.59361 16.6694 8.37476 15.918C10.8864 15.9091 13.2577 15.1045 15.0559 13.6493C15.9623 12.9158 16.6773 12.0551 17.1811 11.0912C17.7152 10.0692 17.9861 8.98039 17.9861 7.85497C17.9861 7.67358 17.9783 7.49324 17.9643 7.31386C19.2242 8.35438 20 9.77258 20 11.3361C20 13.1501 18.9556 14.7687 17.3223 15.8285C17.3024 15.9586 17.2917 16.0916 17.2917 16.2272Z" fill="#B2B2B2"/>
</svg>
